<?xml version="1.0" encoding="UTF-8"?><!DOCTYPE svg PUBLIC "-//W3C//DTD SVG 1.1//EN" "http://www.w3.org/Graphics/SVG/1.1/DTD/svg11.dtd"><svg width="420" height="300" xmlns="http://www.w3.org/2000/svg"><rect fill="#FFFFFF" height="300" width="420" y="0" x="0" /><g><path d="M 17.051689860835,101.117962466488 C 27.5188866799205,186.1581769437 150.709741550696,133.825737265416 137.021868787276,190.246648793566 C 128.165009940358,212.324396782842 144.268389662028,223.772117962466 130.580516898608,263.02144772118 C 46.8429423459244,278.55764075067 195.799204771372,294.093833780161 181.306163021869,273.651474530831 C 174.059642147117,213.142091152815 186.942345924453,220.501340482574 194.994035785288,200.876675603217 C 201.435387673956,188.611260053619 253.771371769384,176.345844504021 274.705765407555,205.782841823056 C 289.198807157058,215.595174262735 271.485089463221,244.214477211796 300.471172962227,277.739946380697 C 243.304174950298,298.182305630027 328.652087475149,298.182305630027 344.755467196819,279.375335120643 C 312.548707753479,245.849865951743 321.405566600398,218.865951742627 329.457256461233,204.965147453083 C 337.508946322068,184.522788203753 342.339960238569,189.428954423593 339.924453280318,157.538873994638 C 340.729622266402,126.466487935657 409.974155069582,46.3324396782842 401.922465208748,26.7077747989276 C 413.194831013916,-6 347.976143141153,59.4155495978552 339.119284294235,116.654155495979 C 310.133200795229,133.825737265416 121.72365805169,135.461126005362 157.956262425447,92.1233243967828 C 175.669980119284,63.5040214477212 135.411530815109,8.71849865951743 135.411530815109,8.71849865951743 C 135.411530815109,8.71849865951743 112.866799204771,80.6756032171582 32.3499005964215,80.6756032171582" style="fill:#CC9900;fill-opacity:1;stroke:#996600;stroke-width:4;stroke-opacity:0.99" /></g><g><ellipse ry="8.5857908847185" rx="13.6878727634195" cy="90.0790884718499" cx="22.6878727634195" style="fill:#CC0000;fill-opacity:1;stroke:#CC3300;stroke-width:1;stroke-opacity:1" /></g><g><path d="M 89.5168986083499,83.1286863270777 C 112.061630218688,94.5764075067024 131.385685884692,52.0563002680965 116.892644135189,75.769436997319 C 102.399602385686,99.4825737265416 66.9721669980119,71.6809651474531 89.5168986083499,83.1286863270777 Z" style="fill:#FFFFFF;fill-opacity:1;stroke:#000000;stroke-width:1;stroke-opacity:1" /></g><g><ellipse ry="13.083109919571" rx="11.6749502982107" cy="92.1233243967828" cx="79.4522862823062" style="fill:#FFFFFF;fill-opacity:1;stroke:#000000;stroke-width:1;stroke-opacity:1" /></g><g><ellipse ry="6.54155495978552" rx="5.63618290258449" cy="95.3941018766756" cx="75.8290258449304" style="fill:#003300;fill-opacity:1;stroke:#000000;stroke-width:1;stroke-opacity:1" /></g><g><path d="M 44.427435387674,142.002680965147 C 84.6858846918489,116.654155495979 108.03578528827,132.190348525469 108.03578528827,132.190348525469" style="fill:#FFFFFF;fill-opacity:0;stroke:#CC3300;stroke-width:4;stroke-opacity:1" /></g><g><text y="46.6139410187668" x="197.409542743539" style="fill:#000000;font-size:12pt;text-anchor:start;font-family: sans-serif">Dog No.001</text></g></svg>